<svg width="16" height="15" viewBox="0 0 16 15" fill="none" xmlns="http://www.w3.org/2000/svg">
<path d="M5.757 0.0711234C5.81335 0.104865 5.86249 0.149376 5.90163 0.202115C5.94077 0.254854 5.96914 0.314788 5.98511 0.378492C6.00108 0.442196 6.00435 0.508423 5.99472 0.57339C5.98509 0.638356 5.96276 0.70079 5.929 0.757123L3.383 5.00012H12.617L10.07 0.757123C10.0018 0.643346 9.98167 0.507151 10.0139 0.378501C10.0462 0.249851 10.1282 0.139284 10.242 0.0711234C10.3558 0.00296281 10.492 -0.017208 10.6206 0.0150482C10.7493 0.0473045 10.8598 0.129346 10.928 0.243124L13.783 5.00012H15C15.2652 5.00012 15.5196 5.10548 15.7071 5.29302C15.8946 5.48055 16 5.73491 16 6.00012V7.00012C16 7.26534 15.8946 7.51969 15.7071 7.70723C15.5196 7.89477 15.2652 8.00012 15 8.00012V12.5001C15 13.1632 14.7366 13.799 14.2678 14.2679C13.7989 14.7367 13.163 15.0001 12.5 15.0001H3.5C2.83696 15.0001 2.20107 14.7367 1.73223 14.2679C1.26339 13.799 1 13.1632 1 12.5001V8.00012C0.734784 8.00012 0.48043 7.89477 0.292893 7.70723C0.105357 7.51969 0 7.26534 0 7.00012V6.00012C0 5.73491 0.105357 5.48055 0.292893 5.29302C0.48043 5.10548 0.734784 5.00012 1 5.00012H2.217L5.07 0.243124C5.10374 0.186777 5.14825 0.137631 5.20099 0.0984909C5.25373 0.059351 5.31366 0.0309845 5.37737 0.015012C5.44107 -0.000960496 5.5073 -0.00422605 5.57227 0.00540169C5.63723 0.0150294 5.69967 0.0373619 5.756 0.0711234H5.757ZM2 8.00012V12.5001C2 12.8979 2.15804 13.2795 2.43934 13.5608C2.72064 13.8421 3.10218 14.0001 3.5 14.0001H12.5C12.8978 14.0001 13.2794 13.8421 13.5607 13.5608C13.842 13.2795 14 12.8979 14 12.5001V8.00012H2ZM1 6.00012V7.00012H15V6.00012H1ZM4 9.00012C4.13261 9.00012 4.25979 9.0528 4.35355 9.14657C4.44732 9.24034 4.5 9.36751 4.5 9.50012V12.5001C4.5 12.6327 4.44732 12.7599 4.35355 12.8537C4.25979 12.9474 4.13261 13.0001 4 13.0001C3.86739 13.0001 3.74021 12.9474 3.64645 12.8537C3.55268 12.7599 3.5 12.6327 3.5 12.5001V9.50012C3.5 9.36751 3.55268 9.24034 3.64645 9.14657C3.74021 9.0528 3.86739 9.00012 4 9.00012ZM6 9.00012C6.13261 9.00012 6.25979 9.0528 6.35355 9.14657C6.44732 9.24034 6.5 9.36751 6.5 9.50012V12.5001C6.5 12.6327 6.44732 12.7599 6.35355 12.8537C6.25979 12.9474 6.13261 13.0001 6 13.0001C5.86739 13.0001 5.74021 12.9474 5.64645 12.8537C5.55268 12.7599 5.5 12.6327 5.5 12.5001V9.50012C5.5 9.36751 5.55268 9.24034 5.64645 9.14657C5.74021 9.0528 5.86739 9.00012 6 9.00012ZM8 9.00012C8.13261 9.00012 8.25979 9.0528 8.35355 9.14657C8.44732 9.24034 8.5 9.36751 8.5 9.50012V12.5001C8.5 12.6327 8.44732 12.7599 8.35355 12.8537C8.25979 12.9474 8.13261 13.0001 8 13.0001C7.86739 13.0001 7.74021 12.9474 7.64645 12.8537C7.55268 12.7599 7.5 12.6327 7.5 12.5001V9.50012C7.5 9.36751 7.55268 9.24034 7.64645 9.14657C7.74021 9.0528 7.86739 9.00012 8 9.00012ZM10 9.00012C10.1326 9.00012 10.2598 9.0528 10.3536 9.14657C10.4473 9.24034 10.5 9.36751 10.5 9.50012V12.5001C10.5 12.6327 10.4473 12.7599 10.3536 12.8537C10.2598 12.9474 10.1326 13.0001 10 13.0001C9.86739 13.0001 9.74021 12.9474 9.64645 12.8537C9.55268 12.7599 9.5 12.6327 9.5 12.5001V9.50012C9.5 9.36751 9.55268 9.24034 9.64645 9.14657C9.74021 9.0528 9.86739 9.00012 10 9.00012ZM12 9.00012C12.1326 9.00012 12.2598 9.0528 12.3536 9.14657C12.4473 9.24034 12.5 9.36751 12.5 9.50012V12.5001C12.5 12.6327 12.4473 12.7599 12.3536 12.8537C12.2598 12.9474 12.1326 13.0001 12 13.0001C11.8674 13.0001 11.7402 12.9474 11.6464 12.8537C11.5527 12.7599 11.5 12.6327 11.5 12.5001V9.50012C11.5 9.36751 11.5527 9.24034 11.6464 9.14657C11.7402 9.0528 11.8674 9.00012 12 9.00012Z" fill="black"/>
</svg>
