<svg width="25" height="25" viewBox="0 0 25 25" fill="none" xmlns="http://www.w3.org/2000/svg">
<path d="M20.3125 15.625H15.625C14.7656 15.625 14.0625 14.9219 14.0625 14.0625C14.0625 13.2031 14.7656 12.5 15.625 12.5H20.3125C20.3125 12.5 25 7.27539 25 4.6875C25 2.09961 22.9004 0 20.3125 0C17.7246 0 15.625 2.09961 15.625 4.6875C15.625 5.93262 16.709 7.7832 17.8369 9.375H15.625C13.042 9.375 10.9375 11.4795 10.9375 14.0625C10.9375 16.6455 13.042 18.75 15.625 18.75H20.3125C21.1719 18.75 21.875 19.4531 21.875 20.3125C21.875 21.1719 21.1719 21.875 20.3125 21.875H9.05762C8.27637 23.0859 7.40723 24.2041 6.74805 25H20.3125C22.8955 25 25 22.8955 25 20.3125C25 17.7295 22.8955 15.625 20.3125 15.625ZM20.3125 3.125C21.1768 3.125 21.875 3.82324 21.875 4.6875C21.875 5.55176 21.1768 6.25 20.3125 6.25C19.4482 6.25 18.75 5.55176 18.75 4.6875C18.75 3.82324 19.4482 3.125 20.3125 3.125ZM4.6875 12.5C2.09961 12.5 0 14.5996 0 17.1875C0 19.7754 4.6875 25 4.6875 25C4.6875 25 9.375 19.7754 9.375 17.1875C9.375 14.5996 7.27539 12.5 4.6875 12.5ZM4.6875 18.75C3.82324 18.75 3.125 18.0518 3.125 17.1875C3.125 16.3232 3.82324 15.625 4.6875 15.625C5.55176 15.625 6.25 16.3232 6.25 17.1875C6.25 18.0518 5.55176 18.75 4.6875 18.75Z" fill="#2D3433"/>
</svg>
